<?xml version="1.0" encoding="UTF-8"?>
<svg xmlns="http://www.w3.org/2000/svg" xmlns:xlink="http://www.w3.org/1999/xlink" width="150" height="150" viewBox="0 0 150 150">
<defs>
<filter id="filter-remove-color" x="0%" y="0%" width="100%" height="100%">
<feColorMatrix color-interpolation-filters="sRGB" values="0 0 0 0 1 0 0 0 0 1 0 0 0 0 1 0 0 0 1 0" />
</filter>
<g>
<g id="glyph-0-0">
<path d="M 0.5625 -1.109375 C 0.484375 -0.9375 0.359375 -0.765625 0.21875 -0.609375 C 0.09375 -0.484375 -0.09375 -0.375 -0.28125 -0.296875 L -0.515625 -0.78125 C -0.40625 -0.859375 -0.28125 -0.9375 -0.1875 -1.03125 C -0.09375 -1.125 0 -1.25 0.046875 -1.359375 C 0.109375 -1.484375 0.125 -1.578125 0.09375 -1.671875 C 0.09375 -1.765625 0.03125 -1.8125 -0.03125 -1.84375 C -0.09375 -1.875 -0.140625 -1.890625 -0.203125 -1.859375 C -0.234375 -1.84375 -0.28125 -1.8125 -0.34375 -1.78125 C -0.40625 -1.734375 -0.46875 -1.65625 -0.515625 -1.609375 L -0.828125 -1.328125 C -0.90625 -1.265625 -1 -1.1875 -1.109375 -1.140625 C -1.203125 -1.078125 -1.328125 -1.046875 -1.421875 -1.046875 C -1.546875 -1.03125 -1.6875 -1.046875 -1.8125 -1.109375 C -1.953125 -1.171875 -2.078125 -1.28125 -2.140625 -1.421875 C -2.25 -1.5625 -2.296875 -1.71875 -2.28125 -1.90625 C -2.296875 -2.078125 -2.265625 -2.25 -2.171875 -2.421875 C -2.09375 -2.59375 -2 -2.734375 -1.875 -2.859375 C -1.75 -3 -1.59375 -3.078125 -1.453125 -3.140625 L -1.203125 -2.640625 C -1.3125 -2.59375 -1.40625 -2.515625 -1.46875 -2.4375 C -1.546875 -2.359375 -1.59375 -2.296875 -1.640625 -2.1875 C -1.6875 -2.09375 -1.71875 -2 -1.703125 -1.921875 C -1.6875 -1.828125 -1.640625 -1.78125 -1.578125 -1.75 C -1.515625 -1.71875 -1.453125 -1.71875 -1.421875 -1.734375 C -1.359375 -1.765625 -1.296875 -1.796875 -1.25 -1.828125 C -1.1875 -1.90625 -1.125 -1.953125 -1.0625 -2.015625 L -0.78125 -2.296875 C -0.6875 -2.390625 -0.578125 -2.453125 -0.484375 -2.5 C -0.390625 -2.546875 -0.265625 -2.578125 -0.15625 -2.578125 C -0.046875 -2.578125 0.078125 -2.546875 0.1875 -2.5 C 0.34375 -2.421875 0.453125 -2.3125 0.546875 -2.1875 C 0.640625 -2.046875 0.6875 -1.890625 0.703125 -1.703125 C 0.703125 -1.515625 0.65625 -1.328125 0.5625 -1.109375 Z M 0.5625 -1.109375 "/>
</g>
<g id="glyph-1-0">
<path d="M 0.75 -1.34375 C 0.640625 -1.125 0.484375 -0.921875 0.28125 -0.8125 C 0.078125 -0.671875 -0.15625 -0.625 -0.40625 -0.625 C -0.65625 -0.640625 -0.9375 -0.71875 -1.203125 -0.875 C -1.5 -1.015625 -1.703125 -1.1875 -1.859375 -1.390625 C -2.015625 -1.59375 -2.078125 -1.8125 -2.09375 -2.046875 C -2.109375 -2.28125 -2.046875 -2.53125 -1.9375 -2.75 C -1.8125 -2.984375 -1.65625 -3.15625 -1.453125 -3.28125 C -1.25 -3.40625 -1.03125 -3.46875 -0.78125 -3.453125 C -0.53125 -3.4375 -0.265625 -3.375 0.03125 -3.234375 C 0.296875 -3.078125 0.515625 -2.890625 0.671875 -2.6875 C 0.828125 -2.5 0.90625 -2.265625 0.921875 -2.046875 C 0.9375 -1.796875 0.875 -1.578125 0.75 -1.34375 Z M 0.25 -1.59375 C 0.328125 -1.71875 0.328125 -1.84375 0.3125 -1.96875 C 0.28125 -2.09375 0.21875 -2.21875 0.125 -2.328125 C 0.015625 -2.4375 -0.125 -2.53125 -0.28125 -2.625 C -0.46875 -2.71875 -0.640625 -2.78125 -0.78125 -2.796875 C -0.921875 -2.8125 -1.0625 -2.796875 -1.15625 -2.734375 C -1.28125 -2.671875 -1.34375 -2.59375 -1.421875 -2.46875 C -1.46875 -2.359375 -1.515625 -2.234375 -1.484375 -2.109375 C -1.484375 -2 -1.40625 -1.890625 -1.3125 -1.78125 C -1.21875 -1.65625 -1.078125 -1.578125 -0.890625 -1.484375 C -0.734375 -1.390625 -0.5625 -1.3125 -0.40625 -1.3125 C -0.265625 -1.296875 -0.140625 -1.296875 -0.015625 -1.34375 C 0.09375 -1.40625 0.203125 -1.484375 0.25 -1.59375 Z M 0.25 -1.59375 "/>
</g>
<g id="glyph-2-0">
<path d="M 0.84375 -1.328125 C 0.734375 -1.125 0.5625 -0.953125 0.359375 -0.828125 C 0.15625 -0.703125 -0.078125 -0.640625 -0.328125 -0.65625 C -0.59375 -0.65625 -0.859375 -0.75 -1.140625 -0.90625 C -1.34375 -1.03125 -1.515625 -1.1875 -1.640625 -1.328125 C -1.78125 -1.515625 -1.859375 -1.671875 -1.90625 -1.84375 C -1.96875 -2.015625 -1.96875 -2.1875 -1.953125 -2.390625 C -1.921875 -2.5625 -1.859375 -2.734375 -1.765625 -2.890625 C -1.671875 -3.046875 -1.5625 -3.1875 -1.421875 -3.25 C -1.265625 -3.359375 -1.125 -3.421875 -1 -3.453125 L -0.828125 -2.953125 C -0.921875 -2.921875 -1 -2.890625 -1.078125 -2.828125 C -1.15625 -2.765625 -1.21875 -2.6875 -1.265625 -2.609375 C -1.328125 -2.484375 -1.359375 -2.375 -1.34375 -2.25 C -1.328125 -2.109375 -1.28125 -1.96875 -1.203125 -1.84375 C -1.109375 -1.71875 -0.96875 -1.609375 -0.8125 -1.515625 C -0.640625 -1.40625 -0.46875 -1.359375 -0.34375 -1.3125 C -0.171875 -1.3125 -0.03125 -1.328125 0.09375 -1.375 C 0.21875 -1.453125 0.3125 -1.546875 0.390625 -1.671875 C 0.453125 -1.78125 0.46875 -1.875 0.484375 -1.96875 C 0.484375 -2.078125 0.46875 -2.15625 0.453125 -2.265625 L 0.953125 -2.359375 C 1.03125 -2.171875 1.03125 -2 1.015625 -1.828125 C 1 -1.65625 0.9375 -1.484375 0.84375 -1.328125 Z M 0.84375 -1.328125 "/>
</g>
<g id="glyph-3-0">
<path d="M 0.1875 -0.296875 L -2.296875 -1.828125 L -1.953125 -2.390625 L 0.53125 -0.859375 Z M 0.1875 -0.296875 "/>
</g>
<g id="glyph-4-0">
<path d="M 0.203125 -0.28125 L -2.1875 -1.953125 L -1.140625 -3.46875 L -0.6875 -3.15625 L -1.359375 -2.1875 L -0.875 -1.84375 L -0.3125 -2.65625 L 0.125 -2.34375 L -0.4375 -1.53125 L 0.125 -1.140625 L 0.828125 -2.140625 L 1.28125 -1.828125 Z M 0.203125 -0.28125 "/>
</g>
<g id="glyph-5-0">
<path d="M 0.5625 -0.734375 L -1.328125 -2.171875 L -1.828125 -1.53125 L -2.265625 -1.859375 L -0.890625 -3.671875 L -0.453125 -3.34375 L -0.9375 -2.703125 L 0.953125 -1.265625 Z M 0.5625 -0.734375 "/>
</g>
<g id="glyph-6-0">
<path d="M 0.53125 -0.65625 L -0.28125 -1.3125 L -2.28125 -1.8125 L -1.84375 -2.359375 L -1.15625 -2.15625 C -1.046875 -2.109375 -0.9375 -2.0625 -0.84375 -2.03125 C -0.734375 -2 -0.609375 -1.96875 -0.515625 -1.921875 L -0.5 -1.9375 C -0.546875 -2.046875 -0.609375 -2.15625 -0.671875 -2.234375 C -0.71875 -2.328125 -0.765625 -2.453125 -0.84375 -2.546875 L -1.1875 -3.15625 L -0.75 -3.703125 L 0.140625 -1.828125 L 0.953125 -1.171875 Z M 0.53125 -0.65625 "/>
</g>
<g id="glyph-7-0">
<path d="M 0.234375 -0.25 L -1.90625 -2.25 L -0.640625 -3.609375 L -0.234375 -3.234375 L -1.046875 -2.359375 L -0.5625 -1.890625 L 0.125 -2.625 L 0.546875 -2.25 L -0.140625 -1.515625 L 0.6875 -0.734375 Z M 0.234375 -0.25 "/>
</g>
<g id="glyph-8-0">
<path d="M 1.140625 -1.015625 C 0.96875 -0.84375 0.765625 -0.71875 0.515625 -0.671875 C 0.296875 -0.625 0.046875 -0.640625 -0.1875 -0.734375 C -0.421875 -0.828125 -0.65625 -0.984375 -0.875 -1.203125 C -1.09375 -1.4375 -1.234375 -1.6875 -1.3125 -1.9375 C -1.390625 -2.15625 -1.375 -2.390625 -1.328125 -2.625 C -1.25 -2.84375 -1.109375 -3.046875 -0.9375 -3.21875 C -0.75 -3.40625 -0.546875 -3.515625 -0.3125 -3.578125 C -0.078125 -3.625 0.140625 -3.609375 0.390625 -3.53125 C 0.625 -3.4375 0.859375 -3.28125 1.078125 -3.046875 C 1.296875 -2.828125 1.4375 -2.578125 1.515625 -2.328125 C 1.578125 -2.09375 1.59375 -1.859375 1.53125 -1.625 C 1.46875 -1.390625 1.328125 -1.203125 1.140625 -1.015625 Z M 0.75 -1.421875 C 0.859375 -1.53125 0.90625 -1.625 0.9375 -1.765625 C 0.9375 -1.875 0.9375 -2.015625 0.859375 -2.15625 C 0.8125 -2.3125 0.71875 -2.4375 0.578125 -2.5625 C 0.4375 -2.71875 0.3125 -2.84375 0.171875 -2.890625 C 0.03125 -2.96875 -0.09375 -2.984375 -0.203125 -2.96875 C -0.34375 -2.9375 -0.4375 -2.90625 -0.546875 -2.796875 C -0.640625 -2.71875 -0.703125 -2.59375 -0.71875 -2.484375 C -0.734375 -2.375 -0.734375 -2.25 -0.65625 -2.109375 C -0.609375 -1.96875 -0.515625 -1.828125 -0.375 -1.671875 C -0.234375 -1.546875 -0.109375 -1.4375 0.03125 -1.375 C 0.171875 -1.296875 0.296875 -1.265625 0.421875 -1.28125 C 0.546875 -1.28125 0.65625 -1.34375 0.75 -1.421875 Z M 0.75 -1.421875 "/>
</g>
<g id="glyph-9-0">
<path d="M 0.265625 -0.21875 L -1.625 -2.4375 L -0.8125 -3.125 C -0.671875 -3.265625 -0.5 -3.375 -0.34375 -3.453125 C -0.1875 -3.515625 -0.015625 -3.546875 0.15625 -3.484375 C 0.3125 -3.46875 0.46875 -3.359375 0.609375 -3.171875 C 0.765625 -3.015625 0.84375 -2.828125 0.859375 -2.65625 C 0.875 -2.5 0.828125 -2.3125 0.75 -2.15625 C 0.671875 -1.984375 0.546875 -1.84375 0.40625 -1.703125 L 0.109375 -1.453125 L 0.78125 -0.65625 Z M -0.234375 -1.859375 L 0.015625 -2.078125 C 0.140625 -2.1875 0.21875 -2.296875 0.234375 -2.421875 C 0.265625 -2.53125 0.203125 -2.640625 0.109375 -2.75 C 0.015625 -2.875 -0.0625 -2.90625 -0.171875 -2.90625 C -0.265625 -2.890625 -0.40625 -2.8125 -0.53125 -2.703125 L -0.78125 -2.484375 Z M 1.46875 -1.25 L 0.171875 -1.765625 L 0.25 -2.390625 L 2.03125 -1.734375 Z M 1.46875 -1.25 "/>
</g>
<g id="glyph-10-0">
<path d="M 0.28125 -0.203125 L -1.453125 -2.546875 L 0.03125 -3.640625 L 0.359375 -3.203125 L -0.59375 -2.515625 L -0.25 -2.046875 L 0.546875 -2.625 L 0.875 -2.1875 L 0.078125 -1.609375 L 0.484375 -1.046875 L 1.46875 -1.765625 L 1.796875 -1.328125 Z M 0.28125 -0.203125 "/>
</g>
<g id="glyph-11-0">
<path d="M 1.34375 -0.859375 C 1.140625 -0.71875 0.921875 -0.625 0.671875 -0.59375 C 0.4375 -0.578125 0.203125 -0.625 -0.015625 -0.71875 C -0.25 -0.859375 -0.453125 -1.046875 -0.640625 -1.3125 C -0.78125 -1.5 -0.875 -1.71875 -0.90625 -1.90625 C -0.96875 -2.125 -0.96875 -2.296875 -0.9375 -2.484375 C -0.90625 -2.671875 -0.84375 -2.828125 -0.75 -2.984375 C -0.640625 -3.125 -0.515625 -3.265625 -0.359375 -3.359375 C -0.203125 -3.46875 -0.046875 -3.53125 0.125 -3.546875 C 0.28125 -3.578125 0.453125 -3.5625 0.578125 -3.546875 L 0.53125 -3.015625 C 0.421875 -3.03125 0.3125 -3.03125 0.234375 -3.015625 C 0.140625 -3 0.046875 -2.9375 -0.03125 -2.890625 C -0.140625 -2.8125 -0.203125 -2.734375 -0.265625 -2.609375 C -0.3125 -2.46875 -0.328125 -2.34375 -0.296875 -2.171875 C -0.265625 -2.03125 -0.203125 -1.875 -0.09375 -1.71875 C 0.015625 -1.546875 0.15625 -1.421875 0.265625 -1.328125 C 0.40625 -1.265625 0.546875 -1.203125 0.671875 -1.203125 C 0.8125 -1.21875 0.9375 -1.25 1.046875 -1.328125 C 1.15625 -1.40625 1.21875 -1.484375 1.28125 -1.578125 C 1.328125 -1.671875 1.359375 -1.75 1.359375 -1.859375 L 1.875 -1.71875 C 1.859375 -1.53125 1.796875 -1.375 1.703125 -1.203125 C 1.625 -1.078125 1.484375 -0.953125 1.34375 -0.859375 Z M 1.34375 -0.859375 "/>
</g>
<g id="glyph-12-0">
<path d="M 1.34375 -0.75 C 1.125 -0.609375 0.890625 -0.546875 0.65625 -0.546875 C 0.421875 -0.546875 0.203125 -0.609375 -0.015625 -0.75 C -0.21875 -0.890625 -0.421875 -1.09375 -0.59375 -1.359375 C -0.765625 -1.640625 -0.828125 -1.90625 -0.859375 -2.15625 C -0.875 -2.40625 -0.84375 -2.625 -0.734375 -2.84375 C -0.625 -3.046875 -0.453125 -3.203125 -0.234375 -3.34375 C -0.015625 -3.484375 0.21875 -3.546875 0.453125 -3.5625 C 0.6875 -3.5625 0.921875 -3.5 1.125 -3.375 C 1.34375 -3.21875 1.515625 -3.015625 1.6875 -2.734375 C 1.859375 -2.46875 1.953125 -2.203125 1.96875 -1.96875 C 2 -1.703125 1.953125 -1.484375 1.84375 -1.265625 C 1.734375 -1.046875 1.5625 -0.890625 1.34375 -0.75 Z M 1.046875 -1.234375 C 1.171875 -1.296875 1.234375 -1.40625 1.28125 -1.53125 C 1.328125 -1.640625 1.34375 -1.765625 1.296875 -1.921875 C 1.28125 -2.078125 1.21875 -2.234375 1.109375 -2.390625 C 1.015625 -2.578125 0.90625 -2.703125 0.765625 -2.796875 C 0.671875 -2.875 0.546875 -2.9375 0.421875 -2.953125 C 0.296875 -2.953125 0.1875 -2.921875 0.0625 -2.859375 C -0.046875 -2.796875 -0.140625 -2.6875 -0.171875 -2.578125 C -0.21875 -2.46875 -0.21875 -2.34375 -0.203125 -2.203125 C -0.171875 -2.046875 -0.09375 -1.90625 0 -1.71875 C 0.109375 -1.5625 0.203125 -1.421875 0.328125 -1.328125 C 0.453125 -1.234375 0.5625 -1.171875 0.6875 -1.15625 C 0.796875 -1.140625 0.9375 -1.171875 1.046875 -1.234375 Z M 1.046875 -1.234375 "/>
</g>
<g id="glyph-13-0">
<path d="M 0.296875 -0.15625 L -1.078125 -2.734375 L -0.453125 -3.078125 L 0.875 -2.15625 C 0.96875 -2.09375 1.0625 -2.015625 1.15625 -1.953125 C 1.25 -1.875 1.359375 -1.78125 1.4375 -1.71875 L 1.453125 -1.71875 C 1.359375 -1.859375 1.265625 -1.984375 1.15625 -2.15625 C 1.0625 -2.296875 0.96875 -2.46875 0.890625 -2.625 L 0.40625 -3.53125 L 0.953125 -3.828125 L 2.328125 -1.25 L 1.71875 -0.921875 L 0.390625 -1.828125 C 0.28125 -1.875 0.1875 -1.96875 0.09375 -2.0625 C -0.015625 -2.125 -0.09375 -2.203125 -0.1875 -2.265625 L -0.203125 -2.265625 C -0.125 -2.125 -0.015625 -2 0.078125 -1.828125 C 0.203125 -1.671875 0.296875 -1.515625 0.359375 -1.375 L 0.859375 -0.453125 Z M 0.296875 -0.15625 "/>
</g>
<g id="glyph-14-0">
<path d="M 1.40625 -0.578125 C 1.1875 -0.484375 0.953125 -0.4375 0.71875 -0.453125 C 0.46875 -0.5 0.265625 -0.59375 0.078125 -0.75 C -0.125 -0.90625 -0.296875 -1.125 -0.421875 -1.421875 C -0.5625 -1.71875 -0.625 -1.984375 -0.609375 -2.25 C -0.609375 -2.5 -0.53125 -2.71875 -0.390625 -2.90625 C -0.25 -3.09375 -0.0625 -3.25 0.15625 -3.34375 C 0.40625 -3.46875 0.640625 -3.5 0.875 -3.484375 C 1.109375 -3.453125 1.3125 -3.375 1.515625 -3.203125 C 1.703125 -3.03125 1.875 -2.828125 2.015625 -2.53125 C 2.140625 -2.234375 2.203125 -1.953125 2.203125 -1.703125 C 2.1875 -1.46875 2.109375 -1.234375 1.984375 -1.03125 C 1.84375 -0.84375 1.65625 -0.703125 1.40625 -0.578125 Z M 1.171875 -1.09375 C 1.296875 -1.15625 1.390625 -1.25 1.453125 -1.359375 C 1.515625 -1.46875 1.53125 -1.609375 1.515625 -1.75 C 1.53125 -1.90625 1.453125 -2.078125 1.375 -2.25 C 1.296875 -2.421875 1.21875 -2.5625 1.109375 -2.6875 C 1 -2.796875 0.890625 -2.84375 0.765625 -2.875 C 0.640625 -2.890625 0.515625 -2.875 0.390625 -2.8125 C 0.28125 -2.765625 0.1875 -2.6875 0.125 -2.578125 C 0.078125 -2.484375 0.046875 -2.359375 0.0625 -2.21875 C 0.0625 -2.046875 0.125 -1.890625 0.203125 -1.71875 C 0.28125 -1.546875 0.375 -1.390625 0.46875 -1.28125 C 0.578125 -1.171875 0.703125 -1.109375 0.8125 -1.0625 C 0.9375 -1.046875 1.0625 -1.046875 1.171875 -1.09375 Z M 1.171875 -1.09375 "/>
</g>
<g id="glyph-15-0">
<path d="M 0.328125 -0.125 L -0.734375 -2.84375 L -0.0625 -3.109375 L 0.84375 -2.078125 C 0.921875 -2 0.96875 -1.9375 1.046875 -1.859375 C 1.078125 -1.78125 1.15625 -1.71875 1.203125 -1.609375 L 1.21875 -1.625 C 1.203125 -1.734375 1.1875 -1.828125 1.203125 -1.921875 C 1.171875 -2.015625 1.1875 -2.09375 1.171875 -2.203125 L 1.125 -3.5625 L 1.8125 -3.828125 L 2.875 -1.109375 L 2.3125 -0.890625 L 1.921875 -1.890625 C 1.890625 -1.984375 1.84375 -2.078125 1.8125 -2.21875 C 1.765625 -2.34375 1.734375 -2.46875 1.703125 -2.59375 C 1.671875 -2.734375 1.65625 -2.828125 1.609375 -2.921875 L 1.59375 -2.921875 L 1.65625 -2.125 L 1.6875 -0.921875 L 1.3125 -0.78125 L 0.53125 -1.6875 L 0.03125 -2.3125 L 0 -2.3125 C 0.0625 -2.21875 0.109375 -2.125 0.171875 -2 C 0.234375 -1.890625 0.28125 -1.765625 0.34375 -1.640625 C 0.40625 -1.53125 0.453125 -1.4375 0.484375 -1.34375 L 0.875 -0.34375 Z M 0.328125 -0.125 "/>
</g>
<g id="glyph-16-0">
<path d="M 0.328125 -0.109375 L -0.609375 -2.875 L 0.03125 -3.09375 L 0.96875 -0.328125 Z M 0.328125 -0.109375 "/>
</g>
<g id="glyph-17-0">
<path d="M 1.53125 -0.40625 C 1.296875 -0.34375 1.0625 -0.3125 0.828125 -0.359375 C 0.59375 -0.40625 0.390625 -0.515625 0.203125 -0.6875 C 0 -0.890625 -0.140625 -1.140625 -0.234375 -1.453125 C -0.296875 -1.671875 -0.3125 -1.90625 -0.296875 -2.09375 C -0.28125 -2.3125 -0.234375 -2.484375 -0.140625 -2.640625 C -0.0625 -2.828125 0.046875 -2.9375 0.1875 -3.078125 C 0.34375 -3.1875 0.484375 -3.265625 0.671875 -3.3125 C 0.84375 -3.375 1.03125 -3.390625 1.171875 -3.34375 C 1.359375 -3.3125 1.5 -3.28125 1.609375 -3.203125 L 1.40625 -2.71875 C 1.296875 -2.765625 1.21875 -2.796875 1.140625 -2.8125 C 1.03125 -2.8125 0.9375 -2.796875 0.859375 -2.78125 C 0.71875 -2.734375 0.609375 -2.671875 0.546875 -2.5625 C 0.453125 -2.453125 0.390625 -2.3125 0.375 -2.171875 C 0.359375 -2.015625 0.390625 -1.84375 0.4375 -1.65625 C 0.5 -1.46875 0.578125 -1.3125 0.640625 -1.1875 C 0.765625 -1.078125 0.875 -1 1.015625 -0.953125 C 1.140625 -0.921875 1.28125 -0.921875 1.421875 -0.96875 C 1.53125 -1 1.609375 -1.0625 1.6875 -1.109375 C 1.765625 -1.1875 1.8125 -1.265625 1.859375 -1.359375 L 2.296875 -1.078125 C 2.234375 -0.890625 2.125 -0.765625 1.984375 -0.640625 C 1.859375 -0.546875 1.703125 -0.453125 1.53125 -0.40625 Z M 1.53125 -0.40625 "/>
</g>
<g id="glyph-18-0">
<path d="M -0.03125 0 L 0.21875 -3.046875 L 0.984375 -3.21875 L 2.546875 -0.59375 L 1.859375 -0.4375 L 1.125 -1.796875 C 1.0625 -1.90625 1 -2.0625 0.9375 -2.21875 C 0.84375 -2.359375 0.765625 -2.515625 0.703125 -2.671875 L 0.6875 -2.65625 C 0.6875 -2.5 0.671875 -2.3125 0.6875 -2.171875 C 0.671875 -1.984375 0.671875 -1.828125 0.65625 -1.6875 L 0.625 -0.140625 Z M 0.40625 -0.8125 L 0.296875 -1.296875 L 1.671875 -1.625 L 1.78125 -1.140625 Z M 0.40625 -0.8125 "/>
</g>
<g id="glyph-19-0">
<path d="M 0.34375 -0.0625 L -0.140625 -2.9375 L 0.546875 -3.046875 L 1.515625 -1.765625 C 1.578125 -1.671875 1.65625 -1.578125 1.71875 -1.46875 C 1.78125 -1.375 1.84375 -1.25 1.90625 -1.15625 L 1.921875 -1.15625 C 1.890625 -1.3125 1.84375 -1.484375 1.796875 -1.671875 C 1.734375 -1.84375 1.703125 -2.03125 1.671875 -2.1875 L 1.5 -3.203125 L 2.125 -3.3125 L 2.609375 -0.4375 L 1.921875 -0.328125 L 0.953125 -1.625 C 0.875 -1.703125 0.8125 -1.8125 0.734375 -1.90625 C 0.671875 -2.015625 0.609375 -2.109375 0.546875 -2.21875 L 0.53125 -2.203125 C 0.578125 -2.0625 0.609375 -1.890625 0.65625 -1.71875 C 0.71875 -1.53125 0.75 -1.34375 0.78125 -1.1875 L 0.953125 -0.15625 Z M 0.34375 -0.0625 "/>
</g>
<g id="glyph-20-0">
<path d="M 0.34375 -0.03125 L 0.015625 -2.9375 L 0.84375 -3.03125 C 1.125 -3.078125 1.390625 -3.046875 1.625 -2.984375 C 1.859375 -2.90625 2.046875 -2.765625 2.1875 -2.5625 C 2.328125 -2.375 2.421875 -2.09375 2.453125 -1.75 C 2.5 -1.4375 2.46875 -1.15625 2.375 -0.921875 C 2.28125 -0.6875 2.125 -0.515625 1.9375 -0.375 C 1.734375 -0.25 1.484375 -0.171875 1.203125 -0.140625 Z M 0.953125 -0.640625 L 1.078125 -0.65625 C 1.21875 -0.671875 1.359375 -0.71875 1.5 -0.796875 C 1.609375 -0.875 1.6875 -0.984375 1.734375 -1.125 C 1.796875 -1.28125 1.8125 -1.4375 1.78125 -1.671875 C 1.765625 -1.90625 1.703125 -2.09375 1.609375 -2.21875 C 1.53125 -2.34375 1.4375 -2.421875 1.296875 -2.46875 C 1.15625 -2.5 1.015625 -2.53125 0.875 -2.515625 L 0.75 -2.5 Z M 0.953125 -0.640625 "/>
</g>
<g id="glyph-21-0">
<path d="M 0.34375 -0.015625 L 0.234375 -2.9375 L 1.296875 -2.984375 C 1.5 -2.984375 1.6875 -2.984375 1.859375 -2.921875 C 2.03125 -2.875 2.171875 -2.796875 2.265625 -2.65625 C 2.390625 -2.53125 2.4375 -2.34375 2.453125 -2.109375 C 2.453125 -1.890625 2.421875 -1.703125 2.3125 -1.5625 C 2.234375 -1.421875 2.09375 -1.296875 1.921875 -1.234375 C 1.75 -1.171875 1.5625 -1.109375 1.359375 -1.109375 L 0.96875 -1.09375 L 1.015625 -0.046875 Z M 0.953125 -1.625 L 1.28125 -1.625 C 1.453125 -1.640625 1.59375 -1.671875 1.6875 -1.75 C 1.78125 -1.84375 1.796875 -1.953125 1.796875 -2.09375 C 1.78125 -2.25 1.75 -2.34375 1.65625 -2.375 C 1.5625 -2.4375 1.421875 -2.46875 1.25 -2.453125 L 0.921875 -2.453125 Z M 1.9375 -0.078125 L 1.234375 -1.28125 L 1.671875 -1.71875 L 2.671875 -0.109375 Z M 1.9375 -0.078125 "/>
</g>
<g id="glyph-22-0">
<path d="M 0.34375 0 L 0.359375 -2.921875 L 2.203125 -2.921875 L 2.1875 -2.375 L 1.015625 -2.375 L 1.015625 -1.78125 L 2 -1.78125 L 2 -1.234375 L 1.015625 -1.234375 L 1.015625 -0.546875 L 2.234375 -0.546875 L 2.234375 0 Z M 0.34375 0 "/>
</g>
<g id="glyph-23-0">
<path d="M 1.640625 0.125 C 1.375 0.109375 1.125 0.046875 0.90625 -0.0625 C 0.703125 -0.1875 0.53125 -0.359375 0.421875 -0.59375 C 0.3125 -0.828125 0.25 -1.09375 0.265625 -1.4375 C 0.28125 -1.671875 0.34375 -1.890625 0.40625 -2.078125 C 0.5 -2.265625 0.609375 -2.421875 0.75 -2.546875 C 0.890625 -2.6875 1.03125 -2.765625 1.21875 -2.84375 C 1.390625 -2.890625 1.578125 -2.921875 1.78125 -2.90625 C 1.984375 -2.890625 2.171875 -2.859375 2.328125 -2.765625 C 2.453125 -2.6875 2.59375 -2.59375 2.6875 -2.484375 L 2.3125 -2.09375 C 2.25 -2.171875 2.171875 -2.234375 2.078125 -2.265625 C 2 -2.296875 1.890625 -2.328125 1.765625 -2.328125 C 1.609375 -2.328125 1.484375 -2.3125 1.359375 -2.234375 C 1.25 -2.171875 1.140625 -2.0625 1.078125 -1.921875 C 1.015625 -1.796875 0.96875 -1.625 0.953125 -1.421875 C 0.953125 -1.21875 0.953125 -1.046875 1.015625 -0.90625 C 1.078125 -0.765625 1.15625 -0.65625 1.28125 -0.5625 C 1.40625 -0.484375 1.5625 -0.4375 1.734375 -0.4375 C 1.796875 -0.4375 1.859375 -0.421875 1.921875 -0.453125 C 1.96875 -0.453125 2.015625 -0.484375 2.046875 -0.515625 L 2.0625 -1.015625 L 1.578125 -1.03125 L 1.609375 -1.578125 L 2.6875 -1.53125 L 2.625 -0.171875 C 2.53125 -0.078125 2.375 0 2.203125 0.0625 C 2.03125 0.109375 1.84375 0.140625 1.640625 0.125 Z M 1.640625 0.125 "/>
</g>
<g id="glyph-24-0">
<path d="M 0.34375 0.03125 L 0.625 -2.875 L 1.296875 -2.8125 L 1.015625 0.09375 Z M 0.34375 0.03125 "/>
</g>
<g id="glyph-25-0">
<path d="M 1.515625 0.25 C 1.265625 0.21875 1.03125 0.140625 0.859375 -0.015625 C 0.671875 -0.171875 0.546875 -0.359375 0.46875 -0.609375 C 0.375 -0.84375 0.359375 -1.109375 0.390625 -1.421875 C 0.4375 -1.75 0.546875 -2.015625 0.6875 -2.234375 C 0.8125 -2.4375 1 -2.578125 1.21875 -2.671875 C 1.421875 -2.75 1.65625 -2.78125 1.90625 -2.75 C 2.171875 -2.71875 2.40625 -2.625 2.59375 -2.484375 C 2.78125 -2.328125 2.90625 -2.15625 2.984375 -1.921875 C 3.0625 -1.671875 3.078125 -1.40625 3.03125 -1.078125 C 3 -0.765625 2.890625 -0.5 2.765625 -0.296875 C 2.640625 -0.078125 2.453125 0.078125 2.234375 0.171875 C 2.015625 0.265625 1.78125 0.28125 1.515625 0.25 Z M 1.578125 -0.3125 C 1.71875 -0.296875 1.84375 -0.328125 1.953125 -0.390625 C 2.0625 -0.453125 2.15625 -0.546875 2.21875 -0.671875 C 2.296875 -0.8125 2.34375 -0.96875 2.359375 -1.15625 C 2.390625 -1.359375 2.40625 -1.546875 2.359375 -1.6875 C 2.328125 -1.828125 2.265625 -1.953125 2.1875 -2.03125 C 2.078125 -2.125 1.96875 -2.171875 1.828125 -2.1875 C 1.703125 -2.203125 1.578125 -2.1875 1.484375 -2.125 C 1.375 -2.078125 1.28125 -1.96875 1.21875 -1.84375 C 1.140625 -1.703125 1.09375 -1.53125 1.0625 -1.328125 C 1.046875 -1.140625 1.03125 -0.96875 1.078125 -0.828125 C 1.109375 -0.6875 1.171875 -0.578125 1.25 -0.484375 C 1.34375 -0.390625 1.453125 -0.328125 1.578125 -0.3125 Z M 1.578125 -0.3125 "/>
</g>
<g id="glyph-26-0">
<path d="M 0.34375 0.0625 L 0.890625 -2.8125 L 1.578125 -2.6875 L 2.046875 -1.125 C 2.078125 -1.015625 2.09375 -0.90625 2.125 -0.796875 C 2.15625 -0.671875 2.171875 -0.546875 2.203125 -0.421875 L 2.21875 -0.421875 C 2.234375 -0.578125 2.25 -0.75 2.265625 -0.9375 C 2.265625 -1.125 2.3125 -1.3125 2.34375 -1.484375 L 2.53125 -2.5 L 3.140625 -2.375 L 2.59375 0.5 L 1.921875 0.359375 L 1.453125 -1.1875 C 1.40625 -1.28125 1.390625 -1.40625 1.359375 -1.546875 C 1.328125 -1.65625 1.3125 -1.78125 1.28125 -1.890625 L 1.265625 -1.890625 C 1.25 -1.734375 1.234375 -1.5625 1.21875 -1.375 C 1.21875 -1.171875 1.171875 -1 1.140625 -0.84375 L 0.953125 0.1875 Z M 0.34375 0.0625 "/>
</g>
<g id="glyph-27-0">
<path d="M -0.03125 0 L 1.53125 -2.640625 L 2.3125 -2.453125 L 2.546875 0.59375 L 1.859375 0.4375 L 1.8125 -1.09375 C 1.796875 -1.234375 1.8125 -1.40625 1.828125 -1.578125 C 1.8125 -1.734375 1.8125 -1.921875 1.8125 -2.078125 L 1.796875 -2.078125 C 1.734375 -1.9375 1.640625 -1.78125 1.578125 -1.640625 C 1.484375 -1.484375 1.421875 -1.328125 1.34375 -1.203125 L 0.625 0.140625 Z M 0.71875 -0.546875 L 0.84375 -1.03125 L 2.21875 -0.71875 L 2.09375 -0.234375 Z M 0.71875 -0.546875 "/>
</g>
<g id="glyph-28-0">
<path d="M 0.328125 0.09375 L 1.171875 -2.703125 L 1.8125 -2.5 L 1.125 -0.234375 L 2.234375 0.09375 L 2.078125 0.625 Z M 0.328125 0.09375 "/>
</g>
<g id="glyph-29-0">
<path d="M 0.328125 0.125 L 1.34375 -2.609375 L 2.28125 -2.265625 C 2.484375 -2.1875 2.671875 -2.09375 2.8125 -1.984375 C 2.9375 -1.875 3.046875 -1.734375 3.09375 -1.5625 C 3.15625 -1.390625 3.140625 -1.203125 3.046875 -0.984375 C 2.984375 -0.78125 2.859375 -0.625 2.703125 -0.5 C 2.5625 -0.421875 2.375 -0.359375 2.203125 -0.359375 C 2.015625 -0.34375 1.828125 -0.390625 1.625 -0.453125 L 1.296875 -0.578125 L 0.953125 0.359375 Z M 1.484375 -1.0625 L 1.78125 -0.953125 C 1.953125 -0.890625 2.078125 -0.890625 2.203125 -0.921875 C 2.328125 -0.96875 2.390625 -1.078125 2.4375 -1.203125 C 2.5 -1.34375 2.484375 -1.46875 2.421875 -1.5625 C 2.34375 -1.65625 2.25 -1.71875 2.078125 -1.796875 L 1.796875 -1.890625 Z M 1.484375 -1.0625 "/>
</g>
<g id="glyph-30-0">
<path d="M 1.390625 0.65625 C 1.15625 0.5625 0.96875 0.421875 0.828125 0.21875 C 0.6875 0.015625 0.609375 -0.203125 0.609375 -0.453125 C 0.59375 -0.6875 0.640625 -0.984375 0.765625 -1.265625 C 0.90625 -1.578125 1.0625 -1.78125 1.25 -1.953125 C 1.4375 -2.125 1.65625 -2.21875 1.890625 -2.25 C 2.125 -2.265625 2.359375 -2.21875 2.59375 -2.125 C 2.84375 -2.015625 3.015625 -1.875 3.15625 -1.6875 C 3.296875 -1.5 3.375 -1.28125 3.390625 -1.03125 C 3.390625 -0.78125 3.359375 -0.515625 3.21875 -0.203125 C 3.09375 0.078125 2.921875 0.3125 2.75 0.46875 C 2.546875 0.640625 2.328125 0.734375 2.09375 0.78125 C 1.859375 0.8125 1.640625 0.765625 1.390625 0.65625 Z M 1.609375 0.140625 C 1.734375 0.1875 1.859375 0.1875 1.984375 0.15625 C 2.109375 0.125 2.21875 0.046875 2.328125 -0.046875 C 2.4375 -0.15625 2.53125 -0.3125 2.59375 -0.484375 C 2.671875 -0.671875 2.734375 -0.828125 2.71875 -0.984375 C 2.734375 -1.140625 2.71875 -1.265625 2.640625 -1.359375 C 2.578125 -1.484375 2.484375 -1.546875 2.359375 -1.59375 C 2.25 -1.640625 2.109375 -1.671875 2 -1.640625 C 1.890625 -1.609375 1.78125 -1.546875 1.671875 -1.4375 C 1.5625 -1.328125 1.46875 -1.171875 1.390625 -0.984375 C 1.328125 -0.8125 1.265625 -0.65625 1.28125 -0.5 C 1.265625 -0.359375 1.28125 -0.21875 1.34375 -0.125 C 1.390625 0 1.5 0.09375 1.609375 0.140625 Z M 1.609375 0.140625 "/>
</g>
<g id="glyph-31-0">
<path d="M 0.3125 0.15625 L 1.59375 -2.46875 L 2.1875 -2.1875 L 1.140625 -0.046875 L 2.1875 0.46875 L 1.953125 0.953125 Z M 0.3125 0.15625 "/>
</g>
<g id="glyph-32-0">
<path d="M 0.296875 0.15625 L 1.671875 -2.421875 L 2.265625 -2.09375 L 0.890625 0.484375 Z M 0.296875 0.15625 "/>
</g>
<g id="glyph-33-0">
<path d="M 1.328125 0.84375 C 1.125 0.71875 0.953125 0.5625 0.828125 0.359375 C 0.703125 0.15625 0.65625 -0.078125 0.65625 -0.328125 C 0.65625 -0.59375 0.734375 -0.859375 0.90625 -1.140625 C 1.015625 -1.34375 1.171875 -1.515625 1.3125 -1.65625 C 1.5 -1.78125 1.65625 -1.875 1.84375 -1.921875 C 2 -1.96875 2.171875 -1.984375 2.375 -1.96875 C 2.546875 -1.921875 2.71875 -1.875 2.875 -1.78125 C 3.046875 -1.6875 3.171875 -1.5625 3.25 -1.4375 C 3.34375 -1.296875 3.40625 -1.15625 3.453125 -1.015625 L 2.953125 -0.84375 C 2.90625 -0.921875 2.875 -1.03125 2.828125 -1.09375 C 2.75 -1.15625 2.671875 -1.21875 2.59375 -1.265625 C 2.46875 -1.34375 2.359375 -1.359375 2.234375 -1.359375 C 2.09375 -1.34375 1.96875 -1.296875 1.828125 -1.203125 C 1.71875 -1.109375 1.59375 -0.984375 1.5 -0.8125 C 1.40625 -0.640625 1.34375 -0.484375 1.328125 -0.34375 C 1.3125 -0.171875 1.328125 -0.046875 1.375 0.078125 C 1.453125 0.21875 1.546875 0.296875 1.671875 0.359375 C 1.78125 0.421875 1.875 0.453125 1.96875 0.46875 C 2.078125 0.46875 2.171875 0.46875 2.265625 0.4375 L 2.359375 0.9375 C 2.171875 1.015625 2 1.015625 1.84375 1 C 1.65625 0.984375 1.5 0.9375 1.328125 0.84375 Z M 1.328125 0.84375 "/>
</g>
<g id="glyph-34-0">
<path d="M 0.71875 0.453125 L 1.28125 -0.4375 L 1.515625 -2.484375 L 2.109375 -2.109375 L 2 -1.421875 C 1.96875 -1.296875 1.9375 -1.171875 1.921875 -1.078125 C 1.890625 -0.96875 1.875 -0.859375 1.859375 -0.734375 C 1.96875 -0.796875 2.046875 -0.859375 2.140625 -0.9375 C 2.234375 -1 2.328125 -1.0625 2.421875 -1.15625 L 2.984375 -1.5625 L 3.578125 -1.203125 L 1.84375 -0.078125 L 1.28125 0.8125 Z M 0.71875 0.453125 "/>
</g>
<g id="glyph-35-0">
<path d="M 0.28125 0.203125 L 1.984375 -2.171875 L 2.53125 -1.78125 L 0.828125 0.59375 Z M 0.28125 0.203125 "/>
</g>
<g id="glyph-36-0">
<path d="M 0.265625 0.21875 L 2.078125 -2.0625 L 2.625 -1.625 L 2.328125 -0.046875 C 2.296875 0.046875 2.28125 0.171875 2.25 0.28125 C 2.203125 0.40625 2.171875 0.53125 2.140625 0.640625 L 2.15625 0.640625 C 2.234375 0.53125 2.328125 0.375 2.4375 0.21875 C 2.53125 0.046875 2.640625 -0.09375 2.75 -0.234375 L 3.390625 -1.03125 L 3.875 -0.640625 L 2.0625 1.640625 L 1.53125 1.21875 L 1.828125 -0.375 C 1.84375 -0.5 1.875 -0.59375 1.90625 -0.734375 C 1.953125 -0.84375 1.984375 -0.953125 2 -1.078125 L 2 -1.09375 C 1.90625 -0.953125 1.8125 -0.8125 1.71875 -0.65625 C 1.625 -0.484375 1.515625 -0.328125 1.421875 -0.203125 L 0.765625 0.609375 Z M 0.265625 0.21875 "/>
</g>
<g id="glyph-37-0">
<path d="M 0.6875 0.609375 L 2.25 -1.1875 L 1.640625 -1.71875 L 2 -2.125 L 3.71875 -0.640625 L 3.359375 -0.234375 L 2.75 -0.765625 L 1.1875 1.03125 Z M 0.6875 0.609375 "/>
</g>
<g id="glyph-38-0">
<path d="M 0.25 0.234375 L 2.25 -1.890625 L 3.59375 -0.625 L 3.21875 -0.234375 L 2.359375 -1.03125 L 1.953125 -0.59375 L 2.671875 0.078125 L 2.296875 0.46875 L 1.578125 -0.203125 L 1.109375 0.296875 L 2 1.125 L 1.625 1.53125 Z M 0.25 0.234375 "/>
</g>
<g id="glyph-39-0">
<path d="M 0.234375 0.25 L 2.375 -1.75 L 3.09375 -0.96875 C 3.234375 -0.828125 3.34375 -0.671875 3.421875 -0.5 C 3.5 -0.34375 3.546875 -0.171875 3.5 -0.015625 C 3.46875 0.15625 3.359375 0.3125 3.1875 0.46875 C 3.03125 0.625 2.859375 0.71875 2.703125 0.734375 C 2.53125 0.765625 2.34375 0.734375 2.1875 0.65625 C 2.015625 0.5625 1.859375 0.453125 1.71875 0.3125 L 1.453125 0.03125 L 0.6875 0.75 Z M 1.84375 -0.328125 L 2.078125 -0.09375 C 2.1875 0.03125 2.296875 0.125 2.421875 0.125 C 2.546875 0.140625 2.65625 0.09375 2.75 0 C 2.875 -0.109375 2.90625 -0.203125 2.875 -0.296875 C 2.859375 -0.40625 2.796875 -0.53125 2.6875 -0.65625 L 2.453125 -0.890625 Z M 1.328125 1.421875 L 1.78125 0.09375 L 2.40625 0.140625 L 1.828125 1.953125 Z M 1.328125 1.421875 "/>
</g>
<g id="glyph-40-0">
<path d="M -0.015625 -0.03125 L 2.8125 -1.21875 L 3.328125 -0.609375 L 1.6875 1.984375 L 1.234375 1.453125 L 2.109375 0.203125 C 2.1875 0.078125 2.296875 -0.0625 2.390625 -0.1875 C 2.484375 -0.328125 2.578125 -0.46875 2.6875 -0.59375 L 2.671875 -0.609375 C 2.53125 -0.53125 2.375 -0.453125 2.234375 -0.390625 C 2.078125 -0.3125 1.9375 -0.21875 1.796875 -0.171875 L 0.421875 0.484375 Z M 0.90625 -0.015625 L 1.296875 -0.34375 L 2.203125 0.734375 L 1.8125 1.0625 Z M 0.90625 -0.015625 "/>
</g>
<g id="glyph-41-0">
<path d="M 0.9375 1.28125 C 0.796875 1.09375 0.6875 0.875 0.640625 0.640625 C 0.59375 0.40625 0.625 0.171875 0.71875 -0.0625 C 0.828125 -0.3125 1.015625 -0.53125 1.265625 -0.734375 C 1.453125 -0.875 1.65625 -0.96875 1.84375 -1.046875 C 2.046875 -1.109375 2.234375 -1.140625 2.421875 -1.09375 C 2.609375 -1.078125 2.765625 -1.03125 2.9375 -0.9375 C 3.09375 -0.84375 3.21875 -0.734375 3.34375 -0.59375 C 3.453125 -0.4375 3.53125 -0.28125 3.5625 -0.109375 C 3.59375 0.046875 3.59375 0.203125 3.578125 0.34375 L 3.046875 0.3125 C 3.046875 0.21875 3.046875 0.109375 3.015625 0.03125 C 3 -0.046875 2.9375 -0.140625 2.875 -0.21875 C 2.796875 -0.328125 2.71875 -0.390625 2.578125 -0.4375 C 2.453125 -0.453125 2.296875 -0.46875 2.15625 -0.4375 C 2 -0.40625 1.859375 -0.3125 1.703125 -0.203125 C 1.546875 -0.078125 1.421875 0.046875 1.34375 0.171875 C 1.28125 0.328125 1.234375 0.453125 1.265625 0.578125 C 1.28125 0.734375 1.3125 0.859375 1.40625 0.96875 C 1.484375 1.0625 1.578125 1.109375 1.640625 1.171875 C 1.75 1.203125 1.84375 1.234375 1.953125 1.25 L 1.84375 1.75 C 1.640625 1.75 1.484375 1.6875 1.328125 1.625 C 1.171875 1.546875 1.0625 1.421875 0.9375 1.28125 Z M 0.9375 1.28125 "/>
</g>
<g id="glyph-42-0">
<path d="M 0.53125 0.75 L 2.46875 -0.625 L 2 -1.28125 L 2.4375 -1.609375 L 3.765625 0.234375 L 3.328125 0.5625 L 2.859375 -0.09375 L 0.921875 1.28125 Z M 0.53125 0.75 "/>
</g>
<g id="glyph-43-0">
<path d="M 0.1875 0.296875 L 2.671875 -1.25 L 3.015625 -0.6875 L 0.53125 0.859375 Z M 0.1875 0.296875 "/>
</g>
<g id="glyph-44-0">
<path d="M 0.734375 1.34375 C 0.609375 1.125 0.53125 0.90625 0.546875 0.65625 C 0.546875 0.421875 0.609375 0.203125 0.75 0 C 0.890625 -0.21875 1.109375 -0.421875 1.375 -0.578125 C 1.65625 -0.75 1.90625 -0.828125 2.15625 -0.84375 C 2.40625 -0.859375 2.640625 -0.828125 2.859375 -0.71875 C 3.046875 -0.59375 3.21875 -0.4375 3.34375 -0.21875 C 3.484375 0.015625 3.5625 0.25 3.5625 0.484375 C 3.5625 0.71875 3.484375 0.953125 3.359375 1.15625 C 3.203125 1.359375 3.015625 1.546875 2.734375 1.71875 C 2.46875 1.875 2.1875 1.96875 1.953125 2 C 1.6875 2.015625 1.46875 1.96875 1.25 1.859375 C 1.046875 1.75 0.875 1.578125 0.734375 1.34375 Z M 1.21875 1.046875 C 1.296875 1.171875 1.390625 1.25 1.515625 1.296875 C 1.640625 1.328125 1.78125 1.34375 1.90625 1.3125 C 2.0625 1.296875 2.21875 1.21875 2.390625 1.125 C 2.5625 1.015625 2.6875 0.921875 2.78125 0.796875 C 2.890625 0.671875 2.9375 0.5625 2.9375 0.453125 C 2.953125 0.3125 2.921875 0.203125 2.84375 0.078125 C 2.78125 -0.03125 2.703125 -0.125 2.578125 -0.15625 C 2.484375 -0.203125 2.34375 -0.21875 2.203125 -0.1875 C 2.046875 -0.15625 1.890625 -0.09375 1.71875 0.015625 C 1.546875 0.109375 1.421875 0.21875 1.328125 0.328125 C 1.234375 0.453125 1.1875 0.5625 1.15625 0.6875 C 1.140625 0.8125 1.15625 0.9375 1.21875 1.046875 Z M 1.21875 1.046875 "/>
</g>
<g id="glyph-45-0">
<path d="M 0.15625 0.296875 L 2.75 -1.0625 L 3.078125 -0.4375 L 2.140625 0.90625 C 2.09375 1 2.015625 1.078125 1.9375 1.171875 C 1.859375 1.25 1.765625 1.359375 1.703125 1.453125 L 1.703125 1.46875 C 1.84375 1.390625 1.984375 1.296875 2.140625 1.1875 C 2.296875 1.078125 2.453125 0.984375 2.609375 0.90625 L 3.53125 0.421875 L 3.8125 0.984375 L 1.21875 2.34375 L 0.90625 1.734375 L 1.828125 0.390625 C 1.890625 0.3125 1.953125 0.203125 2.046875 0.109375 C 2.125 0.015625 2.1875 -0.078125 2.28125 -0.171875 L 2.265625 -0.1875 C 2.140625 -0.109375 1.984375 0 1.828125 0.09375 C 1.6875 0.21875 1.515625 0.296875 1.375 0.375 L 0.453125 0.859375 Z M 0.15625 0.296875 "/>
</g>
<g id="glyph-46-0">
<path d="M 0.46875 1.140625 C 0.390625 0.96875 0.328125 0.765625 0.3125 0.578125 C 0.3125 0.390625 0.34375 0.1875 0.40625 -0.015625 L 0.921875 0.125 C 0.90625 0.25 0.875 0.40625 0.90625 0.53125 C 0.921875 0.671875 0.9375 0.8125 0.984375 0.921875 C 1.046875 1.046875 1.125 1.125 1.1875 1.171875 C 1.265625 1.234375 1.34375 1.21875 1.40625 1.1875 C 1.46875 1.15625 1.515625 1.125 1.546875 1.078125 C 1.546875 1.03125 1.5625 0.96875 1.5625 0.90625 C 1.5625 0.828125 1.5625 0.75 1.546875 0.671875 L 1.546875 0.234375 C 1.53125 0.140625 1.5625 0.03125 1.578125 -0.078125 C 1.609375 -0.203125 1.671875 -0.3125 1.734375 -0.390625 C 1.796875 -0.5 1.90625 -0.578125 2.03125 -0.640625 C 2.171875 -0.703125 2.328125 -0.71875 2.484375 -0.6875 C 2.65625 -0.65625 2.796875 -0.609375 2.9375 -0.46875 C 3.078125 -0.359375 3.171875 -0.21875 3.265625 -0.046875 C 3.34375 0.125 3.375 0.296875 3.375 0.453125 C 3.40625 0.640625 3.375 0.8125 3.328125 0.96875 L 2.78125 0.828125 C 2.8125 0.71875 2.828125 0.609375 2.8125 0.484375 C 2.796875 0.390625 2.78125 0.296875 2.734375 0.1875 C 2.6875 0.09375 2.625 0.03125 2.578125 -0.015625 C 2.5 -0.078125 2.421875 -0.0625 2.359375 -0.03125 C 2.296875 -0.015625 2.265625 0.03125 2.234375 0.078125 C 2.234375 0.140625 2.203125 0.203125 2.21875 0.25 C 2.21875 0.34375 2.21875 0.421875 2.21875 0.515625 L 2.234375 0.921875 C 2.25 1.046875 2.234375 1.171875 2.203125 1.28125 C 2.171875 1.390625 2.109375 1.484375 2.03125 1.578125 C 1.984375 1.671875 1.859375 1.734375 1.75 1.78125 C 1.59375 1.859375 1.453125 1.859375 1.296875 1.84375 C 1.109375 1.828125 0.96875 1.75 0.828125 1.640625 C 0.671875 1.515625 0.5625 1.359375 0.46875 1.140625 Z M 0.46875 1.140625 "/>
</g>
<g id="glyph-47-0">
<path d="M 1.5 -0.140625 C 1.34375 -0.234375 1.21875 -0.359375 1.15625 -0.484375 C 1.078125 -0.65625 1.03125 -0.828125 1.03125 -0.96875 C 1.03125 -1.15625 1.078125 -1.3125 1.171875 -1.46875 C 1.265625 -1.625 1.390625 -1.765625 1.546875 -1.859375 C 1.671875 -1.9375 1.84375 -1.984375 2.015625 -1.984375 C 2.171875 -2 2.328125 -1.953125 2.484375 -1.859375 C 2.640625 -1.765625 2.765625 -1.65625 2.828125 -1.515625 C 2.90625 -1.359375 2.9375 -1.203125 2.953125 -1.046875 C 2.953125 -0.859375 2.890625 -0.6875 2.796875 -0.53125 C 2.703125 -0.375 2.59375 -0.25 2.4375 -0.15625 C 2.296875 -0.09375 2.140625 -0.03125 1.96875 -0.015625 C 1.8125 -0.015625 1.65625 -0.046875 1.5 -0.140625 Z M 1.5 -0.140625 "/>
</g>
<g id="glyph-48-0">
<path d="M 1.890625 0.578125 C 1.578125 0.5 1.28125 0.375 1.03125 0.1875 C 0.765625 0 0.5625 -0.21875 0.390625 -0.515625 L 1.09375 -1.015625 C 1.21875 -0.84375 1.390625 -0.6875 1.5625 -0.546875 C 1.75 -0.421875 1.921875 -0.328125 2.125 -0.265625 C 2.328125 -0.21875 2.515625 -0.21875 2.640625 -0.265625 C 2.765625 -0.3125 2.828125 -0.421875 2.875 -0.546875 C 2.90625 -0.65625 2.890625 -0.734375 2.875 -0.796875 C 2.828125 -0.875 2.765625 -0.953125 2.671875 -1.015625 C 2.59375 -1.0625 2.484375 -1.15625 2.375 -1.25 L 1.859375 -1.65625 C 1.703125 -1.75 1.59375 -1.890625 1.46875 -2.03125 C 1.359375 -2.171875 1.296875 -2.328125 1.25 -2.515625 C 1.21875 -2.703125 1.203125 -2.90625 1.265625 -3.125 C 1.328125 -3.359375 1.46875 -3.578125 1.65625 -3.734375 C 1.84375 -3.90625 2.078125 -4.03125 2.328125 -4.0625 C 2.625 -4.140625 2.90625 -4.109375 3.234375 -4.03125 C 3.484375 -3.953125 3.75 -3.84375 3.96875 -3.6875 C 4.1875 -3.5 4.390625 -3.3125 4.515625 -3.078125 L 3.828125 -2.578125 C 3.703125 -2.71875 3.5625 -2.84375 3.4375 -2.9375 C 3.296875 -3.0625 3.15625 -3.109375 3.015625 -3.15625 C 2.828125 -3.203125 2.671875 -3.203125 2.546875 -3.171875 C 2.4375 -3.125 2.34375 -3.03125 2.3125 -2.921875 C 2.28125 -2.828125 2.3125 -2.734375 2.34375 -2.65625 C 2.375 -2.578125 2.453125 -2.5 2.546875 -2.4375 C 2.640625 -2.375 2.75 -2.28125 2.859375 -2.1875 L 3.375 -1.796875 C 3.546875 -1.6875 3.671875 -1.546875 3.765625 -1.40625 C 3.875 -1.265625 3.9375 -1.109375 3.984375 -0.9375 C 4 -0.765625 4 -0.5625 3.9375 -0.359375 C 3.875 -0.109375 3.734375 0.109375 3.5625 0.28125 C 3.375 0.453125 3.125 0.578125 2.859375 0.640625 C 2.5625 0.703125 2.25 0.671875 1.890625 0.578125 Z M 1.890625 0.578125 "/>
</g>
<g id="glyph-49-0">
<path d="M 0.546875 0.078125 L 1.1875 -4.515625 L 4.0625 -4.109375 L 3.953125 -3.25 L 2.109375 -3.515625 L 1.96875 -2.578125 L 3.53125 -2.359375 L 3.40625 -1.484375 L 1.84375 -1.703125 L 1.703125 -0.640625 L 3.625 -0.375 L 3.5 0.484375 Z M 0.546875 0.078125 "/>
</g>
<g id="glyph-50-0">
<path d="M 0.546875 0.015625 L 0.609375 -4.625 L 2.28125 -4.609375 C 2.609375 -4.609375 2.90625 -4.546875 3.171875 -4.46875 C 3.453125 -4.375 3.671875 -4.234375 3.828125 -4 C 3.984375 -3.796875 4.0625 -3.5 4.0625 -3.125 C 4.0625 -2.78125 3.953125 -2.484375 3.796875 -2.265625 C 3.640625 -2.0625 3.421875 -1.890625 3.140625 -1.78125 C 2.875 -1.671875 2.578125 -1.640625 2.25 -1.640625 L 1.625 -1.640625 L 1.59375 0.03125 Z M 1.625 -2.46875 L 2.15625 -2.46875 C 2.4375 -2.46875 2.65625 -2.515625 2.8125 -2.625 C 2.953125 -2.75 3.03125 -2.921875 3.03125 -3.140625 C 3.03125 -3.375 2.953125 -3.53125 2.828125 -3.625 C 2.6875 -3.71875 2.46875 -3.78125 2.1875 -3.78125 L 1.65625 -3.78125 Z M 3.0625 0.046875 L 2.0625 -1.90625 L 2.78125 -2.5625 L 4.234375 0.0625 Z M 3.0625 0.046875 "/>
</g>
<g id="glyph-51-0">
<path d="M 0.546875 -0.0625 L 0.046875 -4.671875 L 1.625 -4.84375 C 1.96875 -4.875 2.28125 -4.875 2.578125 -4.796875 C 2.84375 -4.734375 3.078125 -4.609375 3.28125 -4.40625 C 3.46875 -4.21875 3.5625 -3.9375 3.609375 -3.578125 C 3.65625 -3.203125 3.625 -2.890625 3.46875 -2.65625 C 3.328125 -2.40625 3.125 -2.203125 2.875 -2.046875 C 2.609375 -1.921875 2.3125 -1.828125 1.984375 -1.796875 L 1.40625 -1.734375 L 1.578125 -0.171875 Z M 1.3125 -2.5625 L 1.828125 -2.625 C 2.109375 -2.65625 2.328125 -2.734375 2.453125 -2.875 C 2.578125 -3.015625 2.625 -3.21875 2.59375 -3.46875 C 2.5625 -3.703125 2.46875 -3.859375 2.328125 -3.9375 C 2.15625 -4.015625 1.921875 -4.046875 1.640625 -4.015625 L 1.15625 -3.96875 Z M 1.3125 -2.5625 "/>
</g>
<g id="glyph-52-0">
<path d="M 0.53125 -0.109375 L -0.453125 -4.640625 L 0.578125 -4.875 L 1.5625 -0.34375 Z M 0.53125 -0.109375 "/>
</g>
<g id="glyph-53-0">
<path d="M 0.671875 -1.34375 C 0.515625 -1.25 0.34375 -1.234375 0.1875 -1.25 C 0.015625 -1.25 -0.15625 -1.3125 -0.28125 -1.390625 C -0.421875 -1.5 -0.53125 -1.59375 -0.625 -1.765625 C -0.703125 -1.9375 -0.75 -2.109375 -0.75 -2.28125 C -0.765625 -2.453125 -0.703125 -2.609375 -0.625 -2.765625 C -0.53125 -2.90625 -0.421875 -3.015625 -0.265625 -3.109375 C -0.109375 -3.1875 0.0625 -3.21875 0.21875 -3.203125 C 0.390625 -3.1875 0.53125 -3.140625 0.6875 -3.046875 C 0.828125 -2.953125 0.96875 -2.828125 1.046875 -2.65625 C 1.140625 -2.484375 1.15625 -2.34375 1.15625 -2.15625 C 1.140625 -2 1.109375 -1.828125 1.03125 -1.6875 C 0.9375 -1.546875 0.828125 -1.421875 0.671875 -1.34375 Z M 0.671875 -1.34375 "/>
</g>
</g>
<mask id="mask-0">
<g filter="url(#filter-remove-color)">
<rect x="-15" y="-15" width="180" height="180" fill="rgb(0%, 0%, 0%)" fill-opacity="0.7"/>
</g>
</mask>
<clipPath id="clip-0">
<rect x="0" y="0" width="150" height="150"/>
</clipPath>
<g id="source-5" clip-path="url(#clip-0)">
<path fill="none" stroke-width="1.05" stroke-linecap="butt" stroke-linejoin="miter" stroke="rgb(13.33313%, 26.274109%, 22.744751%)" stroke-opacity="1" stroke-miterlimit="4" d="M 58.5 84 L 69 63 "/>
<path fill="none" stroke-width="1.05" stroke-linecap="butt" stroke-linejoin="miter" stroke="rgb(13.33313%, 26.274109%, 22.744751%)" stroke-opacity="1" stroke-miterlimit="4" d="M 69 63 L 88.5 58.5 "/>
<path fill="none" stroke-width="1.05" stroke-linecap="butt" stroke-linejoin="miter" stroke="rgb(13.33313%, 26.274109%, 22.744751%)" stroke-opacity="1" stroke-miterlimit="4" d="M 88.5 58.5 L 94.5 78 "/>
<path fill="none" stroke-width="1.05" stroke-linecap="butt" stroke-linejoin="miter" stroke="rgb(13.33313%, 26.274109%, 22.744751%)" stroke-opacity="1" stroke-miterlimit="4" d="M 94.5 78 L 81 91.5 "/>
<path fill="none" stroke-width="1.05" stroke-linecap="butt" stroke-linejoin="miter" stroke="rgb(13.33313%, 26.274109%, 22.744751%)" stroke-opacity="1" stroke-miterlimit="4" d="M 81 91.5 L 58.5 84 "/>
<path fill="none" stroke-width="1.05" stroke-linecap="butt" stroke-linejoin="miter" stroke="rgb(13.33313%, 26.274109%, 22.744751%)" stroke-opacity="1" stroke-miterlimit="4" d="M 75 75 L 69 63 "/>
<path fill="none" stroke-width="1.05" stroke-linecap="butt" stroke-linejoin="miter" stroke="rgb(13.33313%, 26.274109%, 22.744751%)" stroke-opacity="1" stroke-miterlimit="4" d="M 75 75 L 88.5 58.5 "/>
<path fill="none" stroke-width="1.05" stroke-linecap="butt" stroke-linejoin="miter" stroke="rgb(13.33313%, 26.274109%, 22.744751%)" stroke-opacity="1" stroke-miterlimit="4" d="M 75 75 L 81 91.5 "/>
<path fill="none" stroke-width="1.05" stroke-linecap="butt" stroke-linejoin="miter" stroke="rgb(13.33313%, 26.274109%, 22.744751%)" stroke-opacity="1" stroke-miterlimit="4" d="M 58.5 84 L 88.5 58.5 "/>
</g>
</defs>
<path fill="none" stroke-width="1.05" stroke-linecap="butt" stroke-linejoin="miter" stroke="rgb(13.33313%, 26.274109%, 22.744751%)" stroke-opacity="1" stroke-miterlimit="4" d="M 145.5 75 C 145.5 113.9375 113.9375 145.5 75 145.5 C 36.0625 145.5 4.5 113.9375 4.5 75 C 4.5 36.0625 36.0625 4.5 75 4.5 C 113.9375 4.5 145.5 36.0625 145.5 75 Z M 145.5 75 "/>
<path fill="none" stroke-width="0.6" stroke-linecap="butt" stroke-linejoin="miter" stroke="rgb(60.391235%, 48.234558%, 23.529053%)" stroke-opacity="1" stroke-miterlimit="4" d="M 141 75 C 141 111.449219 111.449219 141 75 141 C 38.550781 141 9 111.449219 9 75 C 9 38.550781 38.550781 9 75 9 C 111.449219 9 141 38.550781 141 75 Z M 141 75 "/>
<path fill="none" stroke-width="0.75" stroke-linecap="butt" stroke-linejoin="miter" stroke="rgb(13.33313%, 26.274109%, 22.744751%)" stroke-opacity="1" stroke-miterlimit="4" d="M 118.5 75 C 118.5 99.023438 99.023438 118.5 75 118.5 C 50.976562 118.5 31.5 99.023438 31.5 75 C 31.5 50.976562 50.976562 31.5 75 31.5 C 99.023438 31.5 118.5 50.976562 118.5 75 Z M 118.5 75 "/>
<g fill="rgb(13.33313%, 26.274109%, 22.744751%)" fill-opacity="1">
<use xlink:href="#glyph-0-0" x="22.644531" y="52.480469"/>
</g>
<g fill="rgb(13.33313%, 26.274109%, 22.744751%)" fill-opacity="1">
<use xlink:href="#glyph-1-0" x="23.679688" y="50.203125"/>
</g>
<g fill="rgb(13.33313%, 26.274109%, 22.744751%)" fill-opacity="1">
<use xlink:href="#glyph-2-0" x="25.175781" y="47.34375"/>
</g>
<g fill="rgb(13.33313%, 26.274109%, 22.744751%)" fill-opacity="1">
<use xlink:href="#glyph-3-0" x="26.585937" y="44.960938"/>
</g>
<g fill="rgb(13.33313%, 26.274109%, 22.744751%)" fill-opacity="1">
<use xlink:href="#glyph-4-0" x="27.375" y="43.679687"/>
</g>
<g fill="rgb(13.33313%, 26.274109%, 22.744751%)" fill-opacity="1">
<use xlink:href="#glyph-5-0" x="28.878906" y="41.539062"/>
</g>
<g fill="rgb(13.33313%, 26.274109%, 22.744751%)" fill-opacity="1">
<use xlink:href="#glyph-6-0" x="30.480469" y="39.429688"/>
</g>
<g fill="rgb(13.33313%, 26.274109%, 22.744751%)" fill-opacity="1">
<use xlink:href="#glyph-7-0" x="32.789063" y="36.714844"/>
</g>
<g fill="rgb(13.33313%, 26.274109%, 22.744751%)" fill-opacity="1">
<use xlink:href="#glyph-8-0" x="34.5" y="34.886719"/>
</g>
<g fill="rgb(13.33313%, 26.274109%, 22.744751%)" fill-opacity="1">
<use xlink:href="#glyph-9-0" x="36.84375" y="32.664062"/>
</g>
<g fill="rgb(13.33313%, 26.274109%, 22.744751%)" fill-opacity="1">
<use xlink:href="#glyph-10-0" x="39.871094" y="30.117187"/>
</g>
<g fill="rgb(13.33313%, 26.274109%, 22.744751%)" fill-opacity="1">
<use xlink:href="#glyph-11-0" x="41.976562" y="28.566406"/>
</g>
<g fill="rgb(13.33313%, 26.274109%, 22.744751%)" fill-opacity="1">
<use xlink:href="#glyph-12-0" x="44.269531" y="27.015625"/>
</g>
<g fill="rgb(13.33313%, 26.274109%, 22.744751%)" fill-opacity="1">
<use xlink:href="#glyph-13-0" x="47.035156" y="25.351562"/>
</g>
<g fill="rgb(13.33313%, 26.274109%, 22.744751%)" fill-opacity="1">
<use xlink:href="#glyph-14-0" x="49.804688" y="23.867187"/>
</g>
<g fill="rgb(13.33313%, 26.274109%, 22.744751%)" fill-opacity="1">
<use xlink:href="#glyph-15-0" x="52.742187" y="22.535156"/>
</g>
<g fill="rgb(13.33313%, 26.274109%, 22.744751%)" fill-opacity="1">
<use xlink:href="#glyph-16-0" x="56.082031" y="21.242188"/>
</g>
<g fill="rgb(13.33313%, 26.274109%, 22.744751%)" fill-opacity="1">
<use xlink:href="#glyph-17-0" x="57.503906" y="20.761719"/>
</g>
<g fill="rgb(13.33313%, 26.274109%, 22.744751%)" fill-opacity="1">
<use xlink:href="#glyph-18-0" x="61.175781" y="19.714844"/>
</g>
<g fill="rgb(13.33313%, 26.274109%, 22.744751%)" fill-opacity="1">
<use xlink:href="#glyph-19-0" x="63.835938" y="19.097656"/>
</g>
<g fill="rgb(13.33313%, 26.274109%, 22.744751%)" fill-opacity="1">
<use xlink:href="#glyph-20-0" x="66.933594" y="18.582031"/>
</g>
<g fill="rgb(13.33313%, 26.274109%, 22.744751%)" fill-opacity="1">
<use xlink:href="#glyph-21-0" x="70.96875" y="18.144531"/>
</g>
<g fill="rgb(13.33313%, 26.274109%, 22.744751%)" fill-opacity="1">
<use xlink:href="#glyph-22-0" x="73.871094" y="18.03125"/>
</g>
<g fill="rgb(13.33313%, 26.274109%, 22.744751%)" fill-opacity="1">
<use xlink:href="#glyph-23-0" x="76.488281" y="18.042969"/>
</g>
<g fill="rgb(13.33313%, 26.274109%, 22.744751%)" fill-opacity="1">
<use xlink:href="#glyph-24-0" x="79.503906" y="18.191406"/>
</g>
<g fill="rgb(13.33313%, 26.274109%, 22.744751%)" fill-opacity="1">
<use xlink:href="#glyph-25-0" x="81" y="18.335937"/>
</g>
<g fill="rgb(13.33313%, 26.274109%, 22.744751%)" fill-opacity="1">
<use xlink:href="#glyph-26-0" x="84.199219" y="18.769531"/>
</g>
<g fill="rgb(13.33313%, 26.274109%, 22.744751%)" fill-opacity="1">
<use xlink:href="#glyph-27-0" x="87.28125" y="19.363281"/>
</g>
<g fill="rgb(13.33313%, 26.274109%, 22.744751%)" fill-opacity="1">
<use xlink:href="#glyph-28-0" x="89.933594" y="20"/>
</g>
<g fill="rgb(13.33313%, 26.274109%, 22.744751%)" fill-opacity="1">
<use xlink:href="#glyph-29-0" x="93.3125" y="21.023437"/>
</g>
<g fill="rgb(13.33313%, 26.274109%, 22.744751%)" fill-opacity="1">
<use xlink:href="#glyph-30-0" x="95.96875" y="22.015625"/>
</g>
<g fill="rgb(13.33313%, 26.274109%, 22.744751%)" fill-opacity="1">
<use xlink:href="#glyph-31-0" x="98.929687" y="23.296875"/>
</g>
<g fill="rgb(13.33313%, 26.274109%, 22.744751%)" fill-opacity="1">
<use xlink:href="#glyph-32-0" x="101.15625" y="24.386719"/>
</g>
<g fill="rgb(13.33313%, 26.274109%, 22.744751%)" fill-opacity="1">
<use xlink:href="#glyph-33-0" x="102.484375" y="25.09375"/>
</g>
<g fill="rgb(13.33313%, 26.274109%, 22.744751%)" fill-opacity="1">
<use xlink:href="#glyph-34-0" x="104.875" y="26.488281"/>
</g>
<g fill="rgb(13.33313%, 26.274109%, 22.744751%)" fill-opacity="1">
<use xlink:href="#glyph-35-0" x="107.847656" y="28.445312"/>
</g>
<g fill="rgb(13.33313%, 26.274109%, 22.744751%)" fill-opacity="1">
<use xlink:href="#glyph-36-0" x="109.066406" y="29.324219"/>
</g>
<g fill="rgb(13.33313%, 26.274109%, 22.744751%)" fill-opacity="1">
<use xlink:href="#glyph-37-0" x="111.527344" y="31.28125"/>
</g>
<g fill="rgb(13.33313%, 26.274109%, 22.744751%)" fill-opacity="1">
<use xlink:href="#glyph-38-0" x="113.523437" y="33.027344"/>
</g>
<g fill="rgb(13.33313%, 26.274109%, 22.744751%)" fill-opacity="1">
<use xlink:href="#glyph-39-0" x="115.425781" y="34.820312"/>
</g>
<g fill="rgb(13.33313%, 26.274109%, 22.744751%)" fill-opacity="1">
<use xlink:href="#glyph-40-0" x="117.410156" y="36.945312"/>
</g>
<g fill="rgb(13.33313%, 26.274109%, 22.744751%)" fill-opacity="1">
<use xlink:href="#glyph-41-0" x="119.171875" y="39.027344"/>
</g>
<g fill="rgb(13.33313%, 26.274109%, 22.744751%)" fill-opacity="1">
<use xlink:href="#glyph-42-0" x="120.871094" y="41.210938"/>
</g>
<g fill="rgb(13.33313%, 26.274109%, 22.744751%)" fill-opacity="1">
<use xlink:href="#glyph-43-0" x="122.414062" y="43.367188"/>
</g>
<g fill="rgb(13.33313%, 26.274109%, 22.744751%)" fill-opacity="1">
<use xlink:href="#glyph-44-0" x="123.210937" y="44.648437"/>
</g>
<g fill="rgb(13.33313%, 26.274109%, 22.744751%)" fill-opacity="1">
<use xlink:href="#glyph-45-0" x="124.855469" y="47.421875"/>
</g>
<g fill="rgb(13.33313%, 26.274109%, 22.744751%)" fill-opacity="1">
<use xlink:href="#glyph-46-0" x="126.304687" y="50.210937"/>
</g>
<g fill="rgb(60.391235%, 48.234558%, 23.529053%)" fill-opacity="1">
<use xlink:href="#glyph-47-0" x="49.195312" y="117.210938"/>
</g>
<g fill="rgb(60.391235%, 48.234558%, 23.529053%)" fill-opacity="1">
<use xlink:href="#glyph-48-0" x="60.425781" y="122.277344"/>
</g>
<g fill="rgb(60.391235%, 48.234558%, 23.529053%)" fill-opacity="1">
<use xlink:href="#glyph-49-0" x="66.089844" y="123.671875"/>
</g>
<g fill="rgb(60.391235%, 48.234558%, 23.529053%)" fill-opacity="1">
<use xlink:href="#glyph-50-0" x="71.820312" y="124.394531"/>
</g>
<g fill="rgb(60.391235%, 48.234558%, 23.529053%)" fill-opacity="1">
<use xlink:href="#glyph-51-0" x="78.058594" y="124.398438"/>
</g>
<g fill="rgb(60.391235%, 48.234558%, 23.529053%)" fill-opacity="1">
<use xlink:href="#glyph-52-0" x="84.128906" y="123.632812"/>
</g>
<g fill="rgb(60.391235%, 48.234558%, 23.529053%)" fill-opacity="1">
<use xlink:href="#glyph-53-0" x="97.269531" y="119.1875"/>
</g>
<g mask="url(#mask-0)">
<use xlink:href="#source-5"/>
</g>
<path fill-rule="nonzero" fill="rgb(13.33313%, 26.274109%, 22.744751%)" fill-opacity="1" d="M 71.398438 63 C 71.398438 66.199219 66.601562 66.199219 66.601562 63 C 66.601562 59.800781 71.398438 59.800781 71.398438 63 Z M 71.398438 63 "/>
<path fill-rule="nonzero" fill="rgb(60.391235%, 48.234558%, 23.529053%)" fill-opacity="1" d="M 91.800781 58.5 C 91.800781 62.898438 85.199219 62.898438 85.199219 58.5 C 85.199219 54.101562 91.800781 54.101562 91.800781 58.5 Z M 91.800781 58.5 "/>
<path fill-rule="nonzero" fill="rgb(13.33313%, 26.274109%, 22.744751%)" fill-opacity="1" d="M 96.898438 78 C 96.898438 81.199219 92.101562 81.199219 92.101562 78 C 92.101562 74.800781 96.898438 74.800781 96.898438 78 Z M 96.898438 78 "/>
<path fill-rule="nonzero" fill="rgb(13.33313%, 26.274109%, 22.744751%)" fill-opacity="1" d="M 83.398438 91.5 C 83.398438 94.699219 78.601562 94.699219 78.601562 91.5 C 78.601562 88.300781 83.398438 88.300781 83.398438 91.5 Z M 83.398438 91.5 "/>
<path fill-rule="nonzero" fill="rgb(13.33313%, 26.274109%, 22.744751%)" fill-opacity="1" d="M 60.898438 84 C 60.898438 87.199219 56.101562 87.199219 56.101562 84 C 56.101562 80.800781 60.898438 80.800781 60.898438 84 Z M 60.898438 84 "/>
<path fill-rule="nonzero" fill="rgb(60.391235%, 48.234558%, 23.529053%)" fill-opacity="1" d="M 77.699219 75 C 77.699219 78.601562 72.300781 78.601562 72.300781 75 C 72.300781 71.398438 77.699219 71.398438 77.699219 75 Z M 77.699219 75 "/>
</svg>
